<svg width="64.057373" height="30.665039" viewBox="0 0 64.0574 30.665" fill="none" xmlns="http://www.w3.org/2000/svg" xmlns:xlink="http://www.w3.org/1999/xlink">
	<path id="Vector" d="M63.1387 19.7734L63.1387 17.9492C63.1387 17.1846 62.9707 16.4307 62.646 15.7393L59.0146 7.99121C58.1897 6.2334 56.4253 5.11133 54.4836 5.11133L47.323 5.11133C46.2573 5.11133 45.345 5.87207 45.1533 6.92188L42.8284 19.6592C42.7646 20.0059 42.4636 20.2568 42.1113 20.2568C41.6587 20.2568 41.3157 19.8506 41.3923 19.4053L44.3723 1.97266C44.5474 0.941406 43.7537 0 42.708 0L2.46362 0C1.10229 0 0 1.10254 0 2.46387C0 3.8252 1.10229 4.92676 2.46362 4.92676L12.106 4.92676C13.3503 4.92676 14.2937 6.04785 14.084 7.27148C13.9197 8.23535 13.084 8.94141 12.106 8.94141L5.56567 8.94141C4.20435 8.94141 3.10229 10.0439 3.10229 11.4053C3.10229 12.7666 4.20435 13.8682 5.56567 13.8682L10.5784 13.8682C11.823 13.8682 12.7664 14.9893 12.5566 16.2139L11.9963 19.4873C11.9253 19.8975 11.697 20.2646 11.3613 20.5127C11.0493 20.7412 10.8303 21.1055 10.781 21.5312L10.593 23.1953C10.4963 24.0586 11.1296 24.8174 11.949 24.8174L14.5437 24.8174C14.969 24.8174 15.323 24.4961 15.3704 24.0752C15.7227 20.8975 18.3066 18.4307 21.4434 18.4307C24.5803 18.4307 27.1624 20.8975 27.5164 24.0752C27.564 24.4961 27.918 24.8174 28.343 24.8174L46.2993 24.8174C46.7244 24.8174 47.0784 24.4961 47.126 24.0752C47.478 20.8975 50.062 18.4307 53.199 18.4307C56.3357 18.4307 58.918 20.8975 59.272 24.0752C59.3193 24.4961 59.6733 24.8174 60.0986 24.8174L62.5037 24.8174C63.1953 24.8174 63.7773 24.2705 63.8594 23.54L64.0474 21.876C64.1077 21.3486 63.8923 20.8613 63.531 20.5605C63.2937 20.3633 63.144 20.0801 63.144 19.7715L63.1387 19.7734ZM57.8813 14.3926L48.0437 14.3926C47.7317 14.3926 47.4963 14.1094 47.553 13.8027L48.4653 8.80469C48.509 8.56738 48.7153 8.39453 48.9563 8.39453L54.332 8.39453C55.6606 8.39453 56.8394 9.24121 57.2646 10.5L58.354 13.7334C58.4636 14.0566 58.2227 14.3926 57.8813 14.3926Z" fill="#1975FF" fill-opacity="1.000000" fill-rule="nonzero"/>
	<path id="Vector" d="M22.9158 19.9141C25.2825 20.7012 26.5068 23.4277 25.6501 26.0029C24.7935 28.5781 22.1802 30.0273 19.8135 29.2402C17.4465 28.4531 16.2224 25.7266 17.0791 23.1514C17.9358 20.5762 20.5488 19.127 22.9158 19.9141Z" fill="#1975FF" fill-opacity="1.000000" fill-rule="evenodd"/>
	<path id="Vector" d="M54.6472 19.9141C57.0139 20.7012 58.2383 23.4277 57.3816 26.0029C56.5249 28.5781 53.9116 30.0273 51.5449 29.2402C49.178 28.4531 47.9539 25.7266 48.8105 23.1514C49.6672 20.5762 52.2803 19.127 54.6472 19.9141Z" fill="#1975FF" fill-opacity="1.000000" fill-rule="evenodd"/>
</svg>
